<svg xmlns="http://www.w3.org/2000/svg" xmlns:xlink="http://www.w3.org/1999/xlink" width="240" height="60" viewBox="0 0 240 60">
  <defs>
    <clipPath id="clip-path">
      <rect id="Rectangle_1046" data-name="Rectangle 1046" width="240" height="60" transform="translate(563 4521)" fill="#e30c0c"/>
    </clipPath>
  </defs>
  <g id="logo" transform="translate(-563 -4521)" clip-path="url(#clip-path)">
    <g id="logo_vmms" data-name="logo vmms" transform="translate(563 4536.233)">
      <g id="Group_6" data-name="Group 6" transform="translate(0 -14)">
        <path id="Path_2" data-name="Path 2" d="M0,17.4H19.708L32.788,33.8s4.747-5.437,9.5-10.421C45.509,20.028,53.3,12.96,55.363,11.328,60.736,6.978,65.932,2.9,70.143,0h5.912S63.245,10.875,57.422,18.306A170.585,170.585,0,0,0,32.7,58.717Z" fill="#e30c0c"/>
        <path id="Path_3" data-name="Path 3" d="M16.859,15v2.877H12.293V10.771H58.428L53.5,15.086Z" transform="translate(-2.887 -2.501)" fill="#e30c0c"/>
        <path id="Path_4" data-name="Path 4" d="M12.293,42.029l4.566,5.663v16.18H30.2l3.314,4.135H12.293Z" transform="translate(-2.887 -9.285)" fill="#e30c0c"/>
        <path id="Path_5" data-name="Path 5" d="M47.567,58.626l-1.791,4.135H73.99V19.434l-4.566,5.034V58.626Z" transform="translate(-10.748 -4.038)" fill="#e30c0c"/>
        <path id="Path_6" data-name="Path 6" d="M88.507,10.771h13.346l13.439,12.523L128.73,10.771h13.346V61.223H128.73V28.647l-13.438,12.7L101.946,28.828v32.4H88.507Z" transform="translate(-20.779 -2.501)" fill="#e30c0c"/>
        <path id="Path_7" data-name="Path 7" d="M167.766,10.771H181.2l13.438,12.523,13.436-12.523h13.259V61.223H207.99V28.647l-13.439,12.7L181.2,28.828v32.4H167.766Z" transform="translate(-39.388 -2.501)" fill="#e30c0c"/>
        <path id="Path_8" data-name="Path 8" d="M287.229,10.861l-7.61,12.613H262.058a2.31,2.31,0,0,0-2.155,2.268,2.088,2.088,0,0,0,2.149,2.088h14.517A20.582,20.582,0,0,1,287.5,31.641a16.284,16.284,0,0,1,6.27,15.335c-.807,4.9-3.4,8.257-7.525,11.434s-11.2,2.813-14.961,2.813h-27.77L250.32,48.7h22.929c1.97.09,7.525.453,7.259-4.174-.09-1.725-1.075-4.174-5.375-4.174-3.4,0-12.542.09-12.542.09s-10.3.544-14.6-8.62c-4.215-8.893,1.7-15.971,5.286-18.326s5.645-2.727,15.408-2.727C276.747,10.771,287.229,10.861,287.229,10.861Z" transform="translate(-57.172 -2.501)" fill="#e30c0c"/>
      </g>
      <path id="Path_9" data-name="Path 9" d="M306.411,0a4.371,4.371,0,0,0-4.479,4.121,4.313,4.313,0,0,0,4.479,4.121,4.372,4.372,0,0,0,4.479-4.121A4.372,4.372,0,0,0,306.411,0Zm0,7.435a3.429,3.429,0,0,1-3.584-3.314A3.488,3.488,0,0,1,306.411.807a3.429,3.429,0,0,1,3.584,3.314,3.488,3.488,0,0,1-3.584,3.314Z" transform="translate(-70.89 -13.998)" fill="#e30c0c"/>
      <path id="Path_10" data-name="Path 10" d="M307.6,4.966a1.606,1.606,0,0,0,.716-.358,1.223,1.223,0,0,0,.358-1.433c-.269-.807-1.344-.716-1.344-.716h-2.149l-.089,4.389h.716V5.055h.986l1.344,1.791h.986Zm-1.7-.537V3.174h1.254c.269,0,.807.09.807.628,0,.628-.716.628-.716.628Z" transform="translate(-71.632 -14.574)" fill="#e30c0c"/>
    </g>
  </g>
</svg>
