<svg xmlns="http://www.w3.org/2000/svg" xmlns:xlink="http://www.w3.org/1999/xlink" width="60" height="60" viewBox="0 0 60 60">
  <defs>
    <clipPath id="clip-path">
      <rect id="Rectangle_1226" data-name="Rectangle 1226" width="60" height="60" transform="translate(798 2380)" fill="#e30c0c" stroke="#484848" stroke-width="1"/>
    </clipPath>
  </defs>
  <g id="Mask_Group_112" data-name="Mask Group 112" transform="translate(-798 -2380)" clip-path="url(#clip-path)">
    <g id="download_5_" data-name="download (5)" transform="translate(798 2380)">
      <g id="Group_3588" data-name="Group 3588" transform="translate(0 39.105)">
        <g id="Group_3587" data-name="Group 3587">
          <path id="Path_379" data-name="Path 379" d="M19.119,47.165a5.279,5.279,0,0,0-7.458,0C10.239,48.588,4.438,58.368,0,66.518c8.148-4.437,17.7-10.472,19.119-11.895A5.279,5.279,0,0,0,19.119,47.165Z" transform="translate(0 -45.623)" fill="#e30c0c"/>
        </g>
      </g>
      <g id="Group_3590" data-name="Group 3590" transform="translate(38.096 14.877)">
        <g id="Group_3589" data-name="Group 3589">
          <path id="Path_380" data-name="Path 380" d="M50.444,18.384a3.516,3.516,0,1,0,0,4.972A3.52,3.52,0,0,0,50.444,18.384Z" transform="translate(-44.445 -17.356)" fill="#e30c0c"/>
        </g>
      </g>
      <g id="Group_3592" data-name="Group 3592" transform="translate(16.187 25.228)">
        <g id="Group_3591" data-name="Group 3591">
          <path id="Path_381" data-name="Path 381" d="M21.314,29.433a42.071,42.071,0,0,0-2.429,7.515L29.933,48a38.951,38.951,0,0,0,7.436-2.508Z" transform="translate(-18.885 -29.433)" fill="#e30c0c"/>
        </g>
      </g>
      <g id="Group_3594" data-name="Group 3594" transform="translate(20.305)">
        <g id="Group_3593" data-name="Group 3593">
          <path id="Path_382" data-name="Path 382" d="M63.384,0C61,.474,46.557-2.529,31.629,11.878A44.958,44.958,0,0,0,23.69,21.946L41.349,39.605a43.94,43.94,0,0,0,10.157-7.85C65.882,16.861,62.918,2.344,63.384,0ZM36.293,29.577l-2.486-2.486,2.486-2.486,2.486,2.486Zm13.672-6.215a7.031,7.031,0,1,1,0-9.943A7.031,7.031,0,0,1,49.965,23.363Zm3.729-11.187L51.208,9.69,53.694,7.2,56.18,9.69Z" transform="translate(-23.69)" fill="#e30c0c"/>
        </g>
      </g>
      <g id="Group_3596" data-name="Group 3596" transform="translate(23.092 43.472)">
        <g id="Group_3595" data-name="Group 3595">
          <path id="Path_383" data-name="Path 383" d="M30.232,55.156l-1.294-1.294-2,7.986,14.085-7.043,1.022-4.088C36.665,53.5,34.553,53.559,30.232,55.156Z" transform="translate(-26.941 -50.717)" fill="#e30c0c"/>
        </g>
      </g>
      <g id="Group_3598" data-name="Group 3598" transform="translate(5.397 21.844)">
        <g id="Group_3597" data-name="Group 3597">
          <path id="Path_384" data-name="Path 384" d="M17.252,25.485l-3.913.979L6.3,40.548l7.986-2-1.319-1.319C14.876,32.18,14.455,30.926,17.252,25.485Z" transform="translate(-6.297 -25.485)" fill="#e30c0c"/>
        </g>
      </g>
    </g>
  </g>
</svg>
