<svg xmlns="http://www.w3.org/2000/svg" xmlns:xlink="http://www.w3.org/1999/xlink" width="60" height="60" viewBox="0 0 60 60">
  <defs>
    <clipPath id="clip-path">
      <rect id="Rectangle_1227" data-name="Rectangle 1227" width="60" height="60" transform="translate(1098 2380)" fill="#e30c0c" stroke="#484848" stroke-width="1"/>
    </clipPath>
  </defs>
  <g id="Mask_Group_111" data-name="Mask Group 111" transform="translate(-1098 -2380)" clip-path="url(#clip-path)">
    <g id="download_4_" data-name="download (4)" transform="translate(1098 2380)">
      <g id="Group_3586" data-name="Group 3586" transform="translate(0 0)">
        <path id="Path_376" data-name="Path 376" d="M32.061,14.429A17.633,17.633,0,1,0,49.694,32.061,17.653,17.653,0,0,0,32.061,14.429ZM33.41,38.005V39.82H31.1V38.087a9.621,9.621,0,0,1-4.2-1.145l1.243-2.813a7.853,7.853,0,0,0,3.777,1.047c1.1,0,1.488-.229,1.488-.621,0-1.439-6.328-.278-6.328-4.546,0-1.848,1.341-3.4,4.023-3.777V24.449H33.41V26.2a8.541,8.541,0,0,1,3.32.949l-1.161,2.8a7.061,7.061,0,0,0-3.189-.85c-1.128,0-1.488.327-1.488.72,0,1.374,6.328.229,6.328,4.448,0,1.766-1.275,3.3-3.81,3.745Z" transform="translate(-2.061 -2.061)" fill="#e30c0c"/>
        <path id="Path_377" data-name="Path 377" d="M60.323,31.2l-3.5.386A26.473,26.473,0,0,1,30.5,60.939,26.913,26.913,0,0,1,9.429,50.785h3.483V47.266H3.505v9.84H7.023V53.4a30.354,30.354,0,0,0,33,9.506,30.005,30.005,0,0,0,20.3-31.71Z" transform="translate(-0.501 -4.457)" fill="#e30c0c"/>
        <path id="Path_378" data-name="Path 378" d="M7.494,16.066A26.509,26.509,0,0,1,21.59,4.908a26.2,26.2,0,0,1,17.33.176A26.689,26.689,0,0,1,50.249,12.95H46.9v3.518l9.511,0V7.07H52.888v3.554a30.228,30.228,0,0,0-12.78-8.852,29.689,29.689,0,0,0-19.635-.2A30,30,0,0,0,.243,33.827l3.489-.451A26.536,26.536,0,0,1,7.494,16.066Z" transform="translate(0 0)" fill="#e30c0c"/>
      </g>
    </g>
  </g>
</svg>
